<svg width="32" height="32" viewBox="0 0 32 32" fill="none" xmlns="http://www.w3.org/2000/svg">
<path d="M15.6694 8.1817C15.2174 8.38676 15.1804 8.46879 15.2989 8.87208L15.3804 9.15233L15.6916 9.11132C16.0324 9.06347 16.3436 8.81056 16.5215 8.44145L16.6178 8.22955L16.6252 8.51664C16.6326 8.69436 16.6697 8.81056 16.7215 8.81056C16.766 8.81056 17.0327 9.00879 17.3069 9.25486L17.8033 9.69916L18.0256 9.59663C18.1886 9.51461 18.3738 9.50093 18.7739 9.53511C19.0629 9.56245 19.2852 9.60347 19.2556 9.62397C19.2333 9.64448 18.9518 9.67866 18.6332 9.706C17.9811 9.74701 17.6773 9.88372 17.9811 9.99308C18.1367 10.0546 18.1293 10.0683 17.8404 10.1161C17.2698 10.2118 16.7363 10.5468 16.5067 10.9569C16.4177 11.1141 16.4177 11.1619 16.4918 11.2098C16.5585 11.244 16.5363 11.285 16.3881 11.3465C16.2251 11.4149 16.1584 11.408 15.988 11.3055C15.6546 11.1004 15.4841 10.8543 15.4323 10.4989C15.373 10.0683 15.1952 9.84271 14.7654 9.64448C14.4691 9.50777 14.3801 9.4941 14.143 9.55562C13.454 9.73334 12.9427 10.3075 13.0316 10.8133C13.0613 10.9705 13.1279 11.1483 13.1872 11.203C13.2539 11.2713 13.2909 11.4217 13.2761 11.5857C13.2687 11.7908 13.2909 11.8523 13.3799 11.8523C13.5132 11.8523 13.654 11.9754 13.8467 12.2419C13.9208 12.3513 14.0393 12.4333 14.106 12.4333C14.2838 12.4333 14.595 12.1121 14.7728 11.7498C14.8618 11.5584 14.921 11.4969 14.921 11.5789C14.921 11.6541 14.8618 11.8523 14.7728 12.0164C14.5802 12.4197 14.6913 12.5222 15.0025 12.2214L15.2396 11.989L15.0099 12.3103C14.884 12.488 14.7136 12.6521 14.6247 12.6726C14.4839 12.7136 14.4839 12.7272 14.5876 12.8366C14.7877 13.0348 14.721 13.0553 14.4394 12.8776C13.943 12.5632 13.2909 12.6931 12.8316 13.1852C12.6908 13.3356 12.4981 13.4586 12.3574 13.486C12.061 13.5475 12.0239 13.5953 12.0091 13.9645C12.0017 14.1285 11.935 14.3404 11.8609 14.4429C11.6979 14.6822 11.646 14.6412 11.7498 14.3541C11.8832 13.9986 11.7794 13.5202 11.4386 12.9118C11.2459 12.5769 11.1126 12.2488 11.1052 12.0847C11.0977 11.9412 11.0533 11.7771 11.0088 11.7224C10.9421 11.6473 10.9866 11.6404 11.283 11.6678C11.5497 11.6883 11.6609 11.6678 11.735 11.5857C11.7868 11.5242 11.9276 11.4764 12.0462 11.4764C12.1573 11.4764 12.2759 11.449 12.2981 11.408C12.3796 11.2918 12.0832 10.9911 11.7498 10.8543L11.4312 10.7245L11.0088 11.0731C10.4902 11.5105 10.342 11.8865 10.2827 12.9186C10.2308 13.7321 10.3568 14.3951 10.6606 15.0103C10.831 15.3452 10.8606 15.3657 11.2015 15.4136C11.3941 15.4409 11.8091 15.4682 12.1128 15.4682C12.713 15.4751 12.7945 15.4409 13.6985 14.8531C13.9874 14.6617 14.1208 14.6207 14.4024 14.6275C14.7284 14.6343 14.7358 14.6343 14.4987 14.689C14.3653 14.7164 14.232 14.7574 14.2097 14.7847C14.1579 14.8326 14.8692 15.4341 15.1433 15.5708C15.247 15.6255 15.5731 15.7417 15.8546 15.8305L16.3733 15.9877L15.9658 15.9467C15.5064 15.9057 14.8766 15.7348 14.8173 15.6391C14.7136 15.4888 14.6617 15.605 14.6469 16.0288C14.6395 16.2748 14.6691 16.5346 14.7062 16.6029C14.758 16.6918 14.7432 16.8012 14.6691 16.972C14.6098 17.1019 14.558 17.3206 14.558 17.4437V17.6761L13.4317 17.7581C12.8093 17.806 12.2833 17.8606 12.2684 17.8743C12.2536 17.888 13.9504 17.8948 16.0473 17.8948C19.7001 17.8812 19.878 17.8743 18.3664 17.7239C18.0552 17.6966 17.9737 17.6556 17.87 17.4984C17.8033 17.389 17.581 17.1839 17.3736 17.0404C17.1735 16.8969 17.0179 16.7738 17.0327 16.7601C17.0475 16.7396 17.1883 16.7806 17.3439 16.8422C17.4995 16.9037 17.6403 16.9242 17.6551 16.89C17.6625 16.8558 17.8255 16.5688 18.0108 16.2543C18.8703 14.7642 18.9147 14.5865 18.848 13.2194C18.811 12.4197 18.7888 12.2829 18.5665 11.825C18.3738 11.4012 18.359 11.3328 18.4776 11.4354C18.6184 11.5584 18.6258 11.5516 18.6776 11.3807C18.6999 11.2781 18.7073 11.0389 18.6924 10.8475C18.6554 10.5331 18.6628 10.5126 18.7517 10.6219C18.811 10.6903 18.8555 10.8954 18.8555 11.0799C18.8555 11.4354 18.8925 11.4627 19.1148 11.285C19.3741 11.0868 19.4408 10.9705 19.6334 10.3485C19.8631 9.61714 19.8409 9.52144 19.2556 9.01562C18.8184 8.63284 18.3961 8.44145 17.6699 8.29107C17.4032 8.23638 17.0624 8.14752 16.9068 8.09284C16.5067 7.94246 16.1362 7.97664 15.6694 8.1817ZM17.4106 13.4245C17.6033 13.7799 17.6329 13.9098 17.6551 14.5113C17.6699 14.8941 17.6996 15.4136 17.7218 15.6801C17.744 15.9399 17.7366 16.1381 17.7144 16.1176C17.5884 16.0082 17.4402 15.2632 17.4254 14.6207C17.3958 13.8346 17.2846 13.4655 16.9216 13.0348C16.64 12.7067 16.6474 12.6521 16.9512 12.8571C17.0772 12.9528 17.2921 13.2057 17.4106 13.4245ZM15.4101 17.4574C15.3508 17.6009 15.2767 17.6966 15.247 17.6693C15.2174 17.6419 15.2545 17.5189 15.336 17.389C15.5138 17.0814 15.5657 17.1293 15.4101 17.4574Z" fill="url(#paint0_linear_4045_327)"/>
<path d="M16.9215 19.6037C16.4177 19.7472 16.188 20.0206 16.188 20.4649C16.188 20.8272 16.4918 21.0665 17.129 21.21C17.9218 21.3946 18.1293 21.5723 17.8329 21.8184C17.6476 21.9756 17.0475 21.9687 16.6622 21.8047L16.3584 21.6748L16.2324 21.914L16.1139 22.1465L16.4547 22.29C16.8993 22.4677 17.744 22.4882 18.0922 22.3242C18.4331 22.1601 18.6331 21.8867 18.6331 21.5996C18.6331 21.1416 18.359 20.9366 17.4995 20.7315C16.9586 20.6085 16.8178 20.506 16.8919 20.3009C16.9808 20.0275 17.4328 19.9865 18.1589 20.1915C18.2849 20.2257 18.3293 20.1915 18.4108 20.0206C18.4923 19.8361 18.4923 19.7951 18.4034 19.7404C18.0996 19.5627 17.3365 19.4943 16.9215 19.6037Z" fill="url(#paint1_linear_4045_327)"/>
<path d="M0.554077 21.0118V22.413H1.46544C2.48054 22.413 2.86583 22.3378 3.11775 22.1054C3.36967 21.873 3.36226 21.4082 3.11034 21.1553C3.01402 21.0596 2.89547 20.9776 2.85101 20.9776C2.79914 20.9776 2.85101 20.8819 2.95474 20.7657C3.28817 20.4034 3.17703 19.9386 2.70282 19.713C2.54722 19.6378 2.23602 19.6105 1.51731 19.6105H0.554077V21.0118ZM2.36199 20.1984C2.51017 20.3282 2.51017 20.4376 2.3768 20.6016C2.2953 20.7042 2.15452 20.7383 1.747 20.7589L1.22093 20.7862V20.4376V20.089H1.73218C2.10265 20.089 2.28048 20.1163 2.36199 20.1984ZM2.33235 21.2442C2.44349 21.2715 2.54722 21.3672 2.59168 21.4834C2.65095 21.6475 2.63614 21.6953 2.48795 21.8047C2.35458 21.9072 2.19898 21.9345 1.76923 21.9345H1.22093V21.5586V21.1827L1.68772 21.1895C1.93965 21.1963 2.22862 21.2168 2.33235 21.2442Z" fill="url(#paint2_linear_4045_327)"/>
<path d="M4.33301 21.0118V22.413H5.44443H6.55585V22.1396V21.8662H5.77785H4.99986V20.7383V19.6105H4.66643H4.33301V21.0118Z" fill="url(#paint3_linear_4045_327)"/>
<path d="M7.38559 20.6153C7.40782 21.7158 7.48192 21.9414 7.89685 22.2285C8.3266 22.5156 9.20832 22.5087 9.66771 22.208C10.0456 21.9619 10.1123 21.709 10.1123 20.6085V19.6105H9.77885H9.44542V20.5606C9.44542 21.4697 9.43802 21.5244 9.2676 21.709C9.01568 21.9756 8.54147 21.9756 8.28955 21.709C8.11913 21.5244 8.11172 21.4697 8.11172 20.5606V19.6105H7.73384H7.35596L7.38559 20.6153Z" fill="url(#paint4_linear_4045_327)"/>
<path d="M11.2976 21.0118V22.413H12.4831H13.6686V22.1396V21.8662H12.8165H11.9645V21.5586V21.2578L12.6906 21.2373L13.4093 21.2168V20.9776V20.7383L12.6906 20.7178L11.9645 20.6973V20.3966V20.089H12.7795H13.5945V19.8497V19.6105H12.4461H11.2976V21.0118Z" fill="url(#paint5_linear_4045_327)"/>
<path d="M19.2258 19.8497V20.0821L19.7297 20.1027L20.2261 20.1232L20.2483 21.2647L20.2632 22.413H20.5966H20.93V21.251V20.089H21.4116H21.8932V19.8497V19.6105H20.5595H19.2258V19.8497Z" fill="url(#paint6_linear_4045_327)"/>
<path d="M22.7823 21.0118V22.413H23.9308H25.0793V22.1396V21.8662H24.2642H23.4492V21.5586V21.251H24.1531H24.857V20.9776V20.7042H24.1531H23.4492V20.3966V20.089H24.2642H25.0793V19.8497V19.6105H23.9308H22.7823V21.0118Z" fill="url(#paint7_linear_4045_327)"/>
<path d="M26.1168 21.0118V22.413H27.3023H28.4878V22.1396V21.8662H27.6358H26.7837V21.5586V21.2578L27.5098 21.2373L28.2285 21.2168V20.9776V20.7383L27.5098 20.7178L26.7837 20.6973V20.3966V20.089H27.5987H28.4138V19.8497V19.6105H27.2653H26.1168V21.0118Z" fill="url(#paint8_linear_4045_327)"/>
<path d="M29.5249 21.0118V22.413H30.6363H31.7477V22.1396V21.8662H30.9697H30.1918V20.7383V19.6105H29.8583H29.5249V21.0118Z" fill="url(#paint9_linear_4045_327)"/>
<path d="M10.6307 24.4636C10.6307 24.614 10.6678 24.7371 10.7048 24.7371C10.7493 24.7371 10.7789 24.655 10.7789 24.5457L10.7863 24.3611L10.9345 24.5457C11.142 24.8054 11.2235 24.7849 11.2235 24.4636C11.2235 24.3133 11.1939 24.1902 11.1494 24.1902C11.1124 24.1902 11.0753 24.2586 11.0753 24.3406V24.4842L10.9049 24.3406C10.6678 24.1355 10.6307 24.1492 10.6307 24.4636Z" fill="url(#paint10_linear_4045_327)"/>
<path d="M11.609 24.2723C11.3867 24.4773 11.609 24.7849 11.9202 24.7097C12.1351 24.6619 12.2166 24.4978 12.1129 24.3201C12.0239 24.1766 11.7424 24.1492 11.609 24.2723ZM12.0165 24.368C12.0684 24.4978 11.8683 24.7029 11.7498 24.6414C11.6609 24.5867 11.6386 24.3748 11.7202 24.3064C11.8091 24.2244 11.9647 24.2586 12.0165 24.368Z" fill="url(#paint11_linear_4045_327)"/>
<path d="M12.8538 24.4568C12.8538 24.614 12.8908 24.7371 12.9279 24.7371C12.9723 24.7371 13.0019 24.7097 13.0019 24.6687C13.0019 24.6345 13.0835 24.5798 13.1946 24.5593C13.4836 24.491 13.4095 24.2312 13.0983 24.2039C12.8612 24.1834 12.8538 24.1902 12.8538 24.4568ZM13.2465 24.3611C13.2539 24.3953 13.202 24.4363 13.1353 24.45C13.0538 24.4636 13.0019 24.4295 13.0019 24.3611C13.0019 24.2449 13.2242 24.2381 13.2465 24.3611Z" fill="url(#paint12_linear_4045_327)"/>
<path d="M13.7799 24.3953C13.6391 24.6414 13.6243 24.8054 13.7577 24.6824C13.8762 24.573 14.0911 24.5798 14.1356 24.6824C14.1504 24.7302 14.1874 24.7507 14.2171 24.7302C14.2764 24.6755 14.0392 24.1902 13.9503 24.1902C13.9207 24.1902 13.8466 24.2791 13.7799 24.3953ZM14.0392 24.4705C14.0392 24.5046 14.0096 24.532 13.9652 24.532C13.9281 24.532 13.8911 24.4841 13.8911 24.4226C13.8911 24.3679 13.9281 24.3406 13.9652 24.3611C14.0096 24.3816 14.0392 24.4295 14.0392 24.4705Z" fill="url(#paint13_linear_4045_327)"/>
<path d="M14.558 24.4636C14.558 24.614 14.595 24.7371 14.6321 24.7371C14.6765 24.7371 14.7062 24.614 14.7062 24.4636C14.7062 24.3133 14.6765 24.1902 14.6321 24.1902C14.595 24.1902 14.558 24.3133 14.558 24.4636Z" fill="url(#paint14_linear_4045_327)"/>
<path d="M15.0024 24.4636C15.0024 24.614 15.0395 24.7371 15.0765 24.7371C15.121 24.7371 15.1506 24.655 15.1506 24.5593V24.3748L15.3062 24.5593C15.5211 24.8054 15.5952 24.7849 15.5952 24.4636C15.5952 24.3133 15.5656 24.1902 15.5211 24.1902C15.4841 24.1902 15.447 24.2586 15.447 24.3406V24.4842L15.2766 24.3406C15.0395 24.1355 15.0024 24.1492 15.0024 24.4636Z" fill="url(#paint15_linear_4045_327)"/>
<path d="M16.3363 24.4636C16.3363 24.614 16.3734 24.7371 16.4104 24.7371C16.4549 24.7371 16.4845 24.6687 16.4845 24.5867V24.4431L16.6697 24.6004L16.855 24.7576L16.8476 24.4568C16.8401 24.2928 16.8179 24.2244 16.8031 24.3064C16.7661 24.4978 16.6994 24.5047 16.5734 24.3269C16.4326 24.115 16.3363 24.1629 16.3363 24.4636Z" fill="url(#paint16_linear_4045_327)"/>
<path d="M17.2255 24.3201C17.1218 24.5046 17.2033 24.6619 17.4256 24.7097C17.6775 24.7712 17.8553 24.6003 17.7886 24.3679C17.7516 24.2244 17.6997 24.1902 17.5219 24.1902C17.3811 24.1902 17.2774 24.2381 17.2255 24.3201ZM17.6627 24.3474C17.7219 24.4158 17.7145 24.4773 17.633 24.573C17.5367 24.696 17.5219 24.696 17.4033 24.5867C17.27 24.4636 17.307 24.2586 17.47 24.2586C17.5293 24.2586 17.6182 24.2996 17.6627 24.3474Z" fill="url(#paint17_linear_4045_327)"/>
<path d="M18.611 24.2381C18.5221 24.3201 18.5592 24.5799 18.6703 24.6687C18.8185 24.7849 19.0334 24.7302 19.063 24.5662C19.0927 24.4295 19.0927 24.4295 18.9815 24.5662C18.8704 24.6961 18.8556 24.6961 18.737 24.5867C18.6259 24.491 18.6259 24.4568 18.7074 24.3611C18.7666 24.2996 18.8704 24.2654 18.9445 24.2791C19.0186 24.2996 19.0778 24.2859 19.0778 24.2518C19.0778 24.1834 18.6851 24.1697 18.611 24.2381Z" fill="url(#paint18_linear_4045_327)"/>
<path d="M19.4851 24.4363C19.3444 24.7507 19.3444 24.7576 19.5222 24.655C19.6407 24.5867 19.7 24.5867 19.8186 24.655C19.9964 24.7576 19.9964 24.7371 19.863 24.4295C19.7223 24.1219 19.6259 24.1287 19.4851 24.4363ZM19.7148 24.5115C19.6407 24.5799 19.5741 24.4773 19.6407 24.3885C19.6852 24.3133 19.7 24.3133 19.7297 24.3885C19.7445 24.4363 19.7371 24.491 19.7148 24.5115Z" fill="url(#paint19_linear_4045_327)"/>
<path d="M20.2632 24.4636C20.2632 24.614 20.3002 24.7371 20.3373 24.7371C20.3817 24.7371 20.4114 24.614 20.4114 24.4636C20.4114 24.3133 20.3817 24.1902 20.3373 24.1902C20.3002 24.1902 20.2632 24.3133 20.2632 24.4636Z" fill="url(#paint20_linear_4045_327)"/>
<path d="M20.7078 24.4636C20.7078 24.614 20.7448 24.7371 20.7819 24.7371C20.8263 24.7371 20.856 24.655 20.856 24.5457L20.8634 24.3611L21.0116 24.5457C21.219 24.8054 21.3005 24.7849 21.3005 24.4636C21.3005 24.3133 21.2709 24.1902 21.2264 24.1902C21.1894 24.1902 21.1523 24.2586 21.1523 24.3406V24.4842L20.9819 24.3406C20.7448 24.1355 20.7078 24.1492 20.7078 24.4636Z" fill="url(#paint21_linear_4045_327)"/>
<defs>
<linearGradient id="paint0_linear_4045_327" x1="15.0203" y1="17.8948" x2="15.0203" y2="8" gradientUnits="userSpaceOnUse">
<stop stop-color="#4297C2"/>
<stop offset="1" stop-color="#4682B4"/>
</linearGradient>
<linearGradient id="paint1_linear_4045_327" x1="17.3735" y1="22.4361" x2="17.3735" y2="19.551" gradientUnits="userSpaceOnUse">
<stop stop-color="#4297C2"/>
<stop offset="1" stop-color="#4682B4"/>
</linearGradient>
<linearGradient id="paint2_linear_4045_327" x1="1.92855" y1="22.413" x2="1.92855" y2="19.6105" gradientUnits="userSpaceOnUse">
<stop stop-color="#4297C2"/>
<stop offset="1" stop-color="#4682B4"/>
</linearGradient>
<linearGradient id="paint3_linear_4045_327" x1="5.44443" y1="22.413" x2="5.44443" y2="19.6105" gradientUnits="userSpaceOnUse">
<stop stop-color="#4297C2"/>
<stop offset="1" stop-color="#4682B4"/>
</linearGradient>
<linearGradient id="paint4_linear_4045_327" x1="8.73412" y1="22.4388" x2="8.73412" y2="19.6105" gradientUnits="userSpaceOnUse">
<stop stop-color="#4297C2"/>
<stop offset="1" stop-color="#4682B4"/>
</linearGradient>
<linearGradient id="paint5_linear_4045_327" x1="12.4831" y1="22.413" x2="12.4831" y2="19.6105" gradientUnits="userSpaceOnUse">
<stop stop-color="#4297C2"/>
<stop offset="1" stop-color="#4682B4"/>
</linearGradient>
<linearGradient id="paint6_linear_4045_327" x1="20.5595" y1="22.413" x2="20.5595" y2="19.6105" gradientUnits="userSpaceOnUse">
<stop stop-color="#4297C2"/>
<stop offset="1" stop-color="#4682B4"/>
</linearGradient>
<linearGradient id="paint7_linear_4045_327" x1="23.9308" y1="22.413" x2="23.9308" y2="19.6105" gradientUnits="userSpaceOnUse">
<stop stop-color="#4297C2"/>
<stop offset="1" stop-color="#4682B4"/>
</linearGradient>
<linearGradient id="paint8_linear_4045_327" x1="27.3023" y1="22.413" x2="27.3023" y2="19.6105" gradientUnits="userSpaceOnUse">
<stop stop-color="#4297C2"/>
<stop offset="1" stop-color="#4682B4"/>
</linearGradient>
<linearGradient id="paint9_linear_4045_327" x1="30.6363" y1="22.413" x2="30.6363" y2="19.6105" gradientUnits="userSpaceOnUse">
<stop stop-color="#4297C2"/>
<stop offset="1" stop-color="#4682B4"/>
</linearGradient>
<linearGradient id="paint10_linear_4045_327" x1="10.9271" y1="24.7371" x2="10.9271" y2="24.1902" gradientUnits="userSpaceOnUse">
<stop stop-color="#4297C2"/>
<stop offset="1" stop-color="#4682B4"/>
</linearGradient>
<linearGradient id="paint11_linear_4045_327" x1="11.8383" y1="24.7213" x2="11.8383" y2="24.1942" gradientUnits="userSpaceOnUse">
<stop stop-color="#4297C2"/>
<stop offset="1" stop-color="#4682B4"/>
</linearGradient>
<linearGradient id="paint12_linear_4045_327" x1="13.1149" y1="24.7371" x2="13.1149" y2="24.1967" gradientUnits="userSpaceOnUse">
<stop stop-color="#4297C2"/>
<stop offset="1" stop-color="#4682B4"/>
</linearGradient>
<linearGradient id="paint13_linear_4045_327" x1="13.946" y1="24.7381" x2="13.946" y2="24.1902" gradientUnits="userSpaceOnUse">
<stop stop-color="#4297C2"/>
<stop offset="1" stop-color="#4682B4"/>
</linearGradient>
<linearGradient id="paint14_linear_4045_327" x1="14.6321" y1="24.7371" x2="14.6321" y2="24.1902" gradientUnits="userSpaceOnUse">
<stop stop-color="#4297C2"/>
<stop offset="1" stop-color="#4682B4"/>
</linearGradient>
<linearGradient id="paint15_linear_4045_327" x1="15.2988" y1="24.7371" x2="15.2988" y2="24.1902" gradientUnits="userSpaceOnUse">
<stop stop-color="#4297C2"/>
<stop offset="1" stop-color="#4682B4"/>
</linearGradient>
<linearGradient id="paint16_linear_4045_327" x1="16.5956" y1="24.7576" x2="16.5956" y2="24.1968" gradientUnits="userSpaceOnUse">
<stop stop-color="#4297C2"/>
<stop offset="1" stop-color="#4682B4"/>
</linearGradient>
<linearGradient id="paint17_linear_4045_327" x1="17.4918" y1="24.7224" x2="17.4918" y2="24.1902" gradientUnits="userSpaceOnUse">
<stop stop-color="#4297C2"/>
<stop offset="1" stop-color="#4682B4"/>
</linearGradient>
<linearGradient id="paint18_linear_4045_327" x1="18.8206" y1="24.7307" x2="18.8206" y2="24.1931" gradientUnits="userSpaceOnUse">
<stop stop-color="#4297C2"/>
<stop offset="1" stop-color="#4682B4"/>
</linearGradient>
<linearGradient id="paint19_linear_4045_327" x1="19.6709" y1="24.714" x2="19.6709" y2="24.2022" gradientUnits="userSpaceOnUse">
<stop stop-color="#4297C2"/>
<stop offset="1" stop-color="#4682B4"/>
</linearGradient>
<linearGradient id="paint20_linear_4045_327" x1="20.3373" y1="24.7371" x2="20.3373" y2="24.1902" gradientUnits="userSpaceOnUse">
<stop stop-color="#4297C2"/>
<stop offset="1" stop-color="#4682B4"/>
</linearGradient>
<linearGradient id="paint21_linear_4045_327" x1="21.0041" y1="24.7371" x2="21.0041" y2="24.1902" gradientUnits="userSpaceOnUse">
<stop stop-color="#4297C2"/>
<stop offset="1" stop-color="#4682B4"/>
</linearGradient>
</defs>
</svg>
