<svg width="32" height="32" viewBox="0 0 32 32" fill="none" xmlns="http://www.w3.org/2000/svg">
<path d="M15.9998 2.66724C8.66699 2.66724 2.66699 8.66724 2.66699 16C2.66699 23.3328 8.66699 29.3328 15.9998 29.3328C23.3326 29.3328 29.3326 23.3328 29.3326 16C29.3326 8.66724 23.3326 2.66724 15.9998 2.66724ZM20.7326 21.0672L15.2926 17.72C15.0967 17.603 14.9347 17.4371 14.8225 17.2384C14.7103 17.0398 14.6517 16.8154 14.6526 16.5872V10.3328C14.6596 10.0673 14.7692 9.81489 14.9583 9.62845C15.1474 9.442 15.4014 9.33605 15.667 9.33284C15.9316 9.33493 16.1847 9.44096 16.3718 9.62804C16.5589 9.81513 16.6649 10.0683 16.667 10.3328V16.2656L21.787 19.3456C22.267 19.64 22.427 20.2656 22.1326 20.7472C21.9879 20.9736 21.76 21.1339 21.4981 21.1938C21.2362 21.2537 20.9613 21.2082 20.7326 21.0672Z" fill="url(#paint0_linear_2067_510)"/>
<defs>
<linearGradient id="paint0_linear_2067_510" x1="15.9998" y1="2.66724" x2="15.9998" y2="29.3328" gradientUnits="userSpaceOnUse">
<stop stop-color="#4297C2"/>
<stop offset="1" stop-color="#4682B4"/>
</linearGradient>
</defs>
</svg>
