<svg width="32" height="32" viewBox="0 0 32 32" fill="none" xmlns="http://www.w3.org/2000/svg">
<path d="M16.0002 2.66724C10.4002 2.66724 5.33301 6.96004 5.33301 13.6C5.33301 17.84 8.60021 22.8272 15.1202 28.5728C15.3666 28.7854 15.6812 28.9024 16.0066 28.9024C16.332 28.9024 16.6466 28.7854 16.893 28.5728C23.4002 22.8272 26.6674 17.84 26.6674 13.6C26.6674 6.96004 21.6002 2.66724 16.0002 2.66724ZM16.0002 16C14.533 16 13.333 14.8 13.333 13.3328C13.333 11.8656 14.533 10.6656 16.0002 10.6656C17.4674 10.6656 18.6674 11.8656 18.6674 13.3328C18.6674 14.8 17.4674 16 16.0002 16Z" fill="url(#paint0_linear_2067_512)"/>
<defs>
<linearGradient id="paint0_linear_2067_512" x1="16.0002" y1="2.66724" x2="16.0002" y2="28.9024" gradientUnits="userSpaceOnUse">
<stop stop-color="#4297C2"/>
<stop offset="1" stop-color="#4682B4"/>
</linearGradient>
</defs>
</svg>
