<svg width="32" height="32" viewBox="0 0 32 32" fill="none" xmlns="http://www.w3.org/2000/svg">
<path d="M26.667 2H5.33259C3.86699 2 2.67979 3.2 2.67979 4.6672L2.66699 20.6672C2.66699 22.1344 3.86699 23.3344 5.33259 23.3344H26.667C28.1326 23.3344 29.3326 22.1344 29.3326 20.6672V4.6672C29.3326 3.2 28.1326 2 26.667 2ZM26.1326 7.6672L16.707 13.5616C16.4943 13.6925 16.2495 13.7619 15.9998 13.7619C15.7501 13.7619 15.5052 13.6925 15.2926 13.5616L5.86699 7.6672C5.73516 7.59121 5.61999 7.48944 5.52835 7.36796C5.43671 7.24648 5.37049 7.10779 5.33363 6.96015C5.29677 6.81252 5.29003 6.65897 5.31382 6.50868C5.33761 6.35838 5.39143 6.21442 5.47208 6.08538C5.55273 5.95634 5.65855 5.84488 5.78322 5.75764C5.90789 5.67039 6.04887 5.60916 6.19772 5.5776C6.34658 5.54604 6.50027 5.54479 6.64962 5.57393C6.79897 5.60307 6.94092 5.662 7.06699 5.7472L15.9998 11.3344L24.9326 5.7472C25.0587 5.662 25.2006 5.60307 25.35 5.57393C25.4993 5.54479 25.653 5.54604 25.8019 5.5776C25.9507 5.60916 26.0917 5.67039 26.2164 5.75764C26.341 5.84488 26.4469 5.95634 26.5275 6.08538C26.6081 6.21442 26.662 6.35838 26.6858 6.50868C26.7096 6.65897 26.7028 6.81252 26.666 6.96015C26.6291 7.10779 26.5629 7.24648 26.4712 7.36796C26.3796 7.48944 26.2644 7.59121 26.1326 7.6672V7.6672Z" fill="url(#paint0_linear_2067_285)"/>
<defs>
<linearGradient id="paint0_linear_2067_285" x1="15.9998" y1="2" x2="15.9998" y2="23.3344" gradientUnits="userSpaceOnUse">
<stop stop-color="#4297C2"/>
<stop offset="1" stop-color="#4682B4"/>
</linearGradient>
</defs>
</svg>
