<svg width="32" height="32" viewBox="0 0 32 32" fill="none" xmlns="http://www.w3.org/2000/svg">
<path d="M25.64 17.3344L22.2528 16.9472C21.8548 16.9006 21.4513 16.9447 21.0728 17.0763C20.6942 17.208 20.3504 17.4237 20.0672 17.7072L17.6128 20.16C13.8283 18.235 10.7522 15.1589 8.8272 11.3744L11.2928 8.9072C11.8672 8.3344 12.1472 7.5344 12.0528 6.72L11.6672 3.36C11.5914 2.70946 11.2791 2.10949 10.7896 1.67431C10.3001 1.23914 9.66775 0.999137 9.0128 1H6.7072C5.2 1 3.9472 2.2544 4.04 3.76C4.7472 15.1472 13.8528 24.24 25.2272 24.9472C26.7328 25.04 27.9872 23.7872 27.9872 22.28V19.9744C27.9905 19.3223 27.7527 18.692 27.3194 18.2047C26.8861 17.7174 26.288 17.4074 25.64 17.3344V17.3344Z" fill="url(#paint0_linear_2067_287)"/>
<defs>
<linearGradient id="paint0_linear_2067_287" x1="16.0112" y1="1" x2="16.0112" y2="24.952" gradientUnits="userSpaceOnUse">
<stop stop-color="#4297C2"/>
<stop offset="1" stop-color="#4682B4"/>
</linearGradient>
</defs>
</svg>
