<svg width="145" height="79" viewBox="0 0 145 79" fill="none" xmlns="http://www.w3.org/2000/svg">
<path d="M70.7004 1.49963C68.6118 2.44724 68.4406 2.82628 68.9884 4.6899L69.365 5.98495L70.8031 5.79544C72.3781 5.57433 73.8162 4.40562 74.6379 2.69993L75.083 1.72074L75.1173 3.04739C75.1515 3.86864 75.3227 4.40562 75.5624 4.40562C75.7678 4.40562 77.0004 5.32163 78.2673 6.45876L80.5613 8.5119L81.5885 8.0381C82.3418 7.65905 83.1978 7.59588 85.0467 7.75381C86.3821 7.88016 87.4092 8.06968 87.2723 8.16444C87.1696 8.2592 85.8685 8.41714 84.3962 8.54348C81.3831 8.73301 79.9793 9.36474 81.3831 9.87013C82.1021 10.1544 82.0679 10.2176 80.7325 10.4387C78.0961 10.8809 75.6309 12.4287 74.5694 14.3239C74.1586 15.0504 74.1586 15.2715 74.501 15.4926C74.8091 15.6505 74.7064 15.84 74.0216 16.1243C73.2683 16.4402 72.9602 16.4086 72.1727 15.9348C70.6319 14.9872 69.8444 13.8501 69.6047 12.2076C69.3308 10.2176 68.5091 9.17522 66.5232 8.2592C65.1536 7.62747 64.7427 7.56429 63.6471 7.84858C60.4628 8.66983 58.1003 11.3231 58.5111 13.6605C58.6481 14.387 58.9562 15.2083 59.2302 15.461C59.5383 15.7769 59.7095 16.4718 59.641 17.2298C59.6068 18.1774 59.7095 18.4617 60.1204 18.4617C60.7367 18.4617 61.3872 19.0303 62.2775 20.2622C62.6199 20.7676 63.1677 21.1466 63.4759 21.1466C64.2976 21.1466 65.7357 19.662 66.5574 17.9879C66.9683 17.1035 67.2422 16.8192 67.2422 17.1983C67.2422 17.5457 66.9683 18.4617 66.5574 19.2198C65.6672 21.0834 66.1808 21.5572 67.6188 20.1674L68.7145 19.0935L67.6531 20.578C67.071 21.3993 66.2835 22.1574 65.8726 22.2521C65.2221 22.4417 65.2221 22.5048 65.7014 23.0102C66.6259 23.9262 66.3177 24.021 65.0166 23.1997C62.7226 21.7468 59.7095 22.3469 57.5867 24.6211C56.9361 25.3161 56.0459 25.8846 55.3953 26.011C54.0258 26.2952 53.8546 26.5164 53.7861 28.222C53.7518 28.9801 53.4437 29.9593 53.1013 30.4331C52.348 31.5386 52.1084 31.3491 52.5877 30.0225C53.204 28.38 52.7247 26.1689 51.1496 23.3577C50.2594 21.8099 49.6431 20.2938 49.6089 19.5357C49.5746 18.8724 49.3692 18.1143 49.1638 17.8616C48.8556 17.5141 49.061 17.4825 50.4306 17.6089C51.6632 17.7036 52.1768 17.6089 52.5192 17.2298C52.7589 16.9456 53.4095 16.7245 53.9573 16.7245C54.4709 16.7245 55.0187 16.5981 55.1214 16.4086C55.4981 15.8716 54.1285 14.4818 52.5877 13.8501L51.1154 13.2499L49.1638 14.8608C46.767 16.8824 46.0822 18.6197 45.8083 23.3893C45.5686 27.1481 46.1507 30.212 47.5545 33.0548C48.342 34.6026 48.479 34.6973 50.054 34.9184C50.9442 35.0448 52.8616 35.1711 54.2654 35.1711C57.0388 35.2027 57.4155 35.0448 61.5927 32.3283C62.928 31.4439 63.5443 31.2544 64.8454 31.286C66.352 31.3175 66.3862 31.3175 65.2905 31.5702C64.6742 31.6966 64.0579 31.8861 63.9552 32.0125C63.7155 32.2336 67.0025 35.0132 68.2694 35.6449C68.7487 35.8976 70.2553 36.4346 71.5564 36.8452L73.9531 37.5717L72.07 37.3822C69.9471 37.1927 67.0368 36.403 66.7628 35.9608C66.2835 35.2659 66.0438 35.8029 65.9753 37.7612C65.9411 38.8984 66.0781 40.0987 66.2493 40.4145C66.4889 40.8252 66.4204 41.3305 66.0781 42.1202C65.8041 42.7204 65.5645 43.7311 65.5645 44.2997V45.3737L60.3601 45.7527C57.4839 45.9738 55.0529 46.2265 54.9845 46.2897C54.916 46.3528 62.7568 46.3844 72.4466 46.3844C89.3267 46.3213 90.1484 46.2897 83.1635 45.5948C81.7255 45.4684 81.3489 45.2789 80.8695 44.5524C80.5613 44.047 79.5342 43.0994 78.5755 42.4361C77.651 41.7728 76.932 41.2042 77.0004 41.141C77.0689 41.0463 77.7195 41.2358 78.4385 41.5201C79.1575 41.8043 79.8081 41.8991 79.8766 41.7412C79.9108 41.5832 80.6641 40.2566 81.5201 38.8036C85.4918 31.9177 85.6973 31.0964 85.3891 24.7791C85.2179 21.0834 85.1152 20.4517 84.088 18.3354C83.1978 16.377 83.1293 16.0611 83.6771 16.5349C84.3277 17.1035 84.3619 17.0719 84.6016 16.2822C84.7043 15.8084 84.7386 14.7029 84.6701 13.8185C84.4989 12.3655 84.5331 12.2707 84.944 12.7761C85.2179 13.092 85.4234 14.0396 85.4234 14.8924C85.4234 16.5349 85.5946 16.6613 86.6217 15.84C87.8201 14.924 88.1283 14.387 89.0185 11.5126C90.0799 8.13285 89.9772 7.69064 87.2723 5.35322C85.2522 3.58436 83.3005 2.69993 79.945 2.00502C78.7124 1.75233 77.1374 1.3417 76.4184 1.08901C74.5694 0.394096 72.8575 0.552032 70.7004 1.49963ZM78.7467 25.7267C79.6369 27.3692 79.7738 27.9693 79.8766 30.749C79.945 32.5178 80.082 34.9184 80.1847 36.1503C80.2874 37.3506 80.2532 38.2666 80.1505 38.1719C79.5684 37.6665 78.8836 34.2235 78.8151 31.2544C78.6782 27.6219 78.1646 25.9162 76.4869 23.9262C75.1858 22.4101 75.22 22.1574 76.6238 23.105C77.2059 23.5472 78.1988 24.7159 78.7467 25.7267ZM69.502 44.3629C69.2281 45.0262 68.8857 45.4684 68.7487 45.3421C68.6118 45.2157 68.783 44.6472 69.1596 44.047C69.9814 42.6256 70.221 42.8467 69.502 44.3629Z" fill="url(#paint0_linear_2048_27)"/>
<path d="M76.4867 54.2812C74.1585 54.9445 73.097 56.2079 73.097 58.2611C73.097 59.9352 74.5009 61.0407 77.4454 61.704C81.1091 62.5569 82.0678 63.3781 80.6982 64.5153C79.8422 65.2418 77.0688 65.2102 75.2884 64.4521L73.8845 63.8519L73.3025 64.9575L72.7546 66.0314L74.3297 66.6947C76.384 67.516 80.2873 67.6108 81.8966 66.8527C83.4716 66.0946 84.3961 64.8311 84.3961 63.5045C84.3961 61.3882 83.1292 60.4406 79.1574 59.493C76.6579 58.9244 76.0074 58.4506 76.3498 57.503C76.7607 56.2395 78.8493 56.05 82.2047 56.9976C82.7868 57.1555 82.9922 56.9976 83.3689 56.2079C83.7455 55.3551 83.7455 55.1656 83.3346 54.9129C81.9308 54.0916 78.4042 53.7758 76.4867 54.2812Z" fill="url(#paint1_linear_2048_27)"/>
<path d="M0.851807 60.788V67.2633H5.06326C9.75407 67.2633 11.5345 66.9159 12.6987 65.8419C13.8628 64.768 13.8286 62.6201 12.6644 61.4514C12.2193 61.0092 11.6715 60.6301 11.466 60.6301C11.2264 60.6301 11.466 60.1879 11.9454 59.6509C13.4862 57.9768 12.9726 55.8289 10.7813 54.7866C10.0622 54.4391 8.62417 54.3128 5.30294 54.3128H0.851807V60.788ZM9.20624 57.0292C9.89102 57.6294 9.89102 58.1348 9.27471 58.8928C8.89808 59.3666 8.24753 59.5246 6.36436 59.6193L3.93336 59.7457V58.1348V56.5238H6.29588C8.00785 56.5238 8.8296 56.6502 9.20624 57.0292ZM9.06928 61.862C9.58287 61.9883 10.0622 62.4306 10.2677 62.9675C10.5416 63.7256 10.4731 63.9467 9.78831 64.4521C9.172 64.9259 8.45297 65.0523 6.46708 65.0523H3.93336V63.315V61.5777L6.09044 61.6093C7.25459 61.6409 8.58993 61.7357 9.06928 61.862Z" fill="url(#paint2_linear_2048_27)"/>
<path d="M18.314 60.788V67.2633H23.4499H28.5858V65.9999V64.7364H24.9907H21.3955V59.5246V54.3128H19.8547H18.314V60.788Z" fill="url(#paint3_linear_2048_27)"/>
<path d="M32.4206 58.956C32.5234 64.0414 32.8658 65.0838 34.7832 66.4104C36.7691 67.7371 40.8436 67.7055 42.9664 66.3157C44.7126 65.1786 45.0208 64.0099 45.0208 58.9244V54.3127H43.48H41.9392V58.7033C41.9392 62.9043 41.905 63.157 41.1175 64.0099C39.9533 65.2417 37.762 65.2417 36.5979 64.0099C35.8104 63.157 35.7761 62.9043 35.7761 58.7033V54.3127H34.0299H32.2837L32.4206 58.956Z" fill="url(#paint4_linear_2048_27)"/>
<path d="M50.4988 60.788V67.2633H55.9771H61.4554V65.9999V64.7364H57.5179H53.5803V63.315V61.9252L56.9358 61.8304L60.257 61.7357V60.6301V59.5246L56.9358 59.4298L53.5803 59.3351V57.9452V56.5238H57.3467H61.113V55.4183V54.3128H55.8059H50.4988V60.788Z" fill="url(#paint5_linear_2048_27)"/>
<path d="M87.1353 55.4183V56.4922L89.4635 56.587L91.7576 56.6818L91.8603 61.9568L91.9288 67.2633H93.4696H95.0103V61.8936V56.5238H97.2359H99.4615V55.4183V54.3128H93.2984H87.1353V55.4183Z" fill="url(#paint6_linear_2048_27)"/>
<path d="M103.57 60.788V67.2633H108.877H114.185V65.9999V64.7364H110.418H106.652V63.315V61.8936H109.905H113.157V60.6301V59.3666H109.905H106.652V57.9452V56.5238H110.418H114.185V55.4183V54.3128H108.877H103.57V60.788Z" fill="url(#paint7_linear_2048_27)"/>
<path d="M118.978 60.788V67.2633H124.456H129.934V65.9999V64.7364H125.997H122.059V63.315V61.9252L125.415 61.8304L128.736 61.7357V60.6301V59.5246L125.415 59.4298L122.059 59.3351V57.9452V56.5238H125.826H129.592V55.4183V54.3128H124.285H118.978V60.788Z" fill="url(#paint8_linear_2048_27)"/>
<path d="M134.728 60.788V67.2633H139.864H145V65.9999V64.7364H141.405H137.81V59.5246V54.3128H136.269H134.728V60.788Z" fill="url(#paint9_linear_2048_27)"/>
<path d="M47.4175 76.7393C47.4175 77.4342 47.5887 78.0028 47.7599 78.0028C47.9653 78.0028 48.1023 77.6238 48.1023 77.1184L48.1365 76.2655L48.8213 77.1184C49.78 78.3187 50.1566 78.2239 50.1566 76.7393C50.1566 76.0444 50.0197 75.4759 49.8142 75.4759C49.643 75.4759 49.4718 75.7917 49.4718 76.1708V76.8341L48.6843 76.1708C47.5887 75.2232 47.4175 75.2863 47.4175 76.7393Z" fill="url(#paint10_linear_2048_27)"/>
<path d="M51.9372 75.8549C50.91 76.8025 51.9372 78.2239 53.3753 77.8765C54.3682 77.6553 54.7449 76.8973 54.2655 76.076C53.8546 75.4127 52.5535 75.2863 51.9372 75.8549ZM53.8204 76.2971C54.0601 76.8973 53.1356 77.8449 52.5878 77.5606C52.1769 77.3079 52.0742 76.3287 52.4508 76.0128C52.8617 75.6338 53.5807 75.7917 53.8204 76.2971Z" fill="url(#paint11_linear_2048_27)"/>
<path d="M57.6892 76.7078C57.6892 77.4342 57.8604 78.0028 58.0316 78.0028C58.237 78.0028 58.374 77.8765 58.374 77.6869C58.374 77.529 58.7506 77.2763 59.2642 77.1816C60.5996 76.8657 60.2572 75.6654 58.8191 75.539C57.7234 75.4443 57.6892 75.4759 57.6892 76.7078ZM59.5039 76.2655C59.5381 76.4235 59.2985 76.613 58.9903 76.6762C58.6137 76.7393 58.374 76.5814 58.374 76.2655C58.374 75.7286 59.4012 75.697 59.5039 76.2655Z" fill="url(#paint12_linear_2048_27)"/>
<path d="M61.9693 76.4234C61.3187 77.5606 61.2502 78.3186 61.8666 77.7501C62.4144 77.2447 63.4073 77.2763 63.6128 77.7501C63.6812 77.9712 63.8524 78.066 63.9894 77.9712C64.2633 77.7185 63.1677 75.4758 62.7568 75.4758C62.6198 75.4758 62.2774 75.8865 61.9693 76.4234ZM63.1677 76.7709C63.1677 76.9288 63.0307 77.0552 62.8253 77.0552C62.6541 77.0552 62.4829 76.8341 62.4829 76.5498C62.4829 76.2971 62.6541 76.1707 62.8253 76.2655C63.0307 76.3603 63.1677 76.5814 63.1677 76.7709Z" fill="url(#paint13_linear_2048_27)"/>
<path d="M65.5642 76.7393C65.5642 77.4342 65.7354 78.0028 65.9066 78.0028C66.112 78.0028 66.249 77.4342 66.249 76.7393C66.249 76.0444 66.112 75.4759 65.9066 75.4759C65.7354 75.4759 65.5642 76.0444 65.5642 76.7393Z" fill="url(#paint14_linear_2048_27)"/>
<path d="M67.6187 76.7393C67.6187 77.4342 67.7898 78.0028 67.961 78.0028C68.1665 78.0028 68.3034 77.6238 68.3034 77.1816V76.3287L69.0225 77.1816C70.0154 78.3187 70.3578 78.2239 70.3578 76.7393C70.3578 76.0444 70.2209 75.4759 70.0154 75.4759C69.8442 75.4759 69.673 75.7917 69.673 76.1708V76.8341L68.8855 76.1708C67.7898 75.2232 67.6187 75.2863 67.6187 76.7393Z" fill="url(#paint15_linear_2048_27)"/>
<path d="M73.782 76.7393C73.782 77.4342 73.9532 78.0028 74.1244 78.0028C74.3298 78.0028 74.4668 77.6869 74.4668 77.3079V76.6446L75.3228 77.3711L76.1787 78.0976L76.1445 76.7077C76.1103 75.9497 76.0075 75.6338 75.9391 76.0128C75.7679 76.8973 75.4597 76.9289 74.8776 76.1076C74.2271 75.1284 73.782 75.3495 73.782 76.7393Z" fill="url(#paint16_linear_2048_27)"/>
<path d="M77.8907 76.076C77.4113 76.9288 77.7879 77.6553 78.8151 77.8764C79.9793 78.1607 80.801 77.371 80.4929 76.2971C80.3217 75.6338 80.082 75.4758 79.2602 75.4758C78.6097 75.4758 78.1303 75.6969 77.8907 76.076ZM79.9108 76.2023C80.1847 76.5182 80.1505 76.8025 79.7738 77.2447C79.3287 77.8133 79.2602 77.8133 78.7124 77.3079C78.0961 76.7393 78.2673 75.7917 79.0206 75.7917C79.2945 75.7917 79.7053 75.9812 79.9108 76.2023Z" fill="url(#paint17_linear_2048_27)"/>
<path d="M84.2934 75.697C83.8825 76.076 84.0537 77.2763 84.5673 77.6869C85.2521 78.2239 86.245 77.9712 86.382 77.2131C86.5189 76.5814 86.5189 76.5814 86.0053 77.2131C85.4918 77.8133 85.4233 77.8133 84.8754 77.3079C84.3619 76.8657 84.3619 76.7078 84.7385 76.2655C85.0124 75.9813 85.4918 75.8233 85.8341 75.8865C86.1765 75.9813 86.4505 75.9181 86.4505 75.7601C86.4505 75.4443 84.6358 75.3811 84.2934 75.697Z" fill="url(#paint18_linear_2048_27)"/>
<path d="M88.3336 76.613C87.6831 78.0659 87.6831 78.0975 88.5048 77.6237C89.0526 77.3079 89.3266 77.3079 89.8744 77.6237C90.6961 78.0975 90.6961 78.0028 90.0798 76.5814C89.4293 75.16 88.9842 75.1915 88.3336 76.613ZM89.395 76.9604C89.0526 77.2763 88.7445 76.8025 89.0526 76.3918C89.2581 76.0444 89.3266 76.0444 89.4635 76.3918C89.532 76.613 89.4978 76.8656 89.395 76.9604Z" fill="url(#paint19_linear_2048_27)"/>
<path d="M91.9285 76.7393C91.9285 77.4342 92.0997 78.0028 92.2709 78.0028C92.4763 78.0028 92.6133 77.4342 92.6133 76.7393C92.6133 76.0444 92.4763 75.4759 92.2709 75.4759C92.0997 75.4759 91.9285 76.0444 91.9285 76.7393Z" fill="url(#paint20_linear_2048_27)"/>
<path d="M93.9834 76.7393C93.9834 77.4342 94.1546 78.0028 94.3258 78.0028C94.5312 78.0028 94.6682 77.6238 94.6682 77.1184L94.7024 76.2655L95.3872 77.1184C96.3459 78.3187 96.7226 78.2239 96.7226 76.7393C96.7226 76.0444 96.5856 75.4759 96.3802 75.4759C96.209 75.4759 96.0378 75.7917 96.0378 76.1708V76.8341L95.2503 76.1708C94.1546 75.2232 93.9834 75.2863 93.9834 76.7393Z" fill="url(#paint21_linear_2048_27)"/>
<defs>
<linearGradient id="paint0_linear_2048_27" x1="67.7008" y1="46.3844" x2="67.7008" y2="0.659969" gradientUnits="userSpaceOnUse">
<stop stop-color="#4297C2"/>
<stop offset="1" stop-color="#4682B4"/>
</linearGradient>
<linearGradient id="paint1_linear_2048_27" x1="78.5753" y1="67.3698" x2="78.5753" y2="54.0378" gradientUnits="userSpaceOnUse">
<stop stop-color="#4297C2"/>
<stop offset="1" stop-color="#4682B4"/>
</linearGradient>
<linearGradient id="paint2_linear_2048_27" x1="7.20332" y1="67.2633" x2="7.20332" y2="54.3128" gradientUnits="userSpaceOnUse">
<stop stop-color="#4297C2"/>
<stop offset="1" stop-color="#4682B4"/>
</linearGradient>
<linearGradient id="paint3_linear_2048_27" x1="23.4499" y1="67.2633" x2="23.4499" y2="54.3128" gradientUnits="userSpaceOnUse">
<stop stop-color="#4297C2"/>
<stop offset="1" stop-color="#4682B4"/>
</linearGradient>
<linearGradient id="paint4_linear_2048_27" x1="38.6522" y1="67.3823" x2="38.6522" y2="54.3127" gradientUnits="userSpaceOnUse">
<stop stop-color="#4297C2"/>
<stop offset="1" stop-color="#4682B4"/>
</linearGradient>
<linearGradient id="paint5_linear_2048_27" x1="55.9771" y1="67.2633" x2="55.9771" y2="54.3128" gradientUnits="userSpaceOnUse">
<stop stop-color="#4297C2"/>
<stop offset="1" stop-color="#4682B4"/>
</linearGradient>
<linearGradient id="paint6_linear_2048_27" x1="93.2984" y1="67.2633" x2="93.2984" y2="54.3128" gradientUnits="userSpaceOnUse">
<stop stop-color="#4297C2"/>
<stop offset="1" stop-color="#4682B4"/>
</linearGradient>
<linearGradient id="paint7_linear_2048_27" x1="108.877" y1="67.2633" x2="108.877" y2="54.3128" gradientUnits="userSpaceOnUse">
<stop stop-color="#4297C2"/>
<stop offset="1" stop-color="#4682B4"/>
</linearGradient>
<linearGradient id="paint8_linear_2048_27" x1="124.456" y1="67.2633" x2="124.456" y2="54.3128" gradientUnits="userSpaceOnUse">
<stop stop-color="#4297C2"/>
<stop offset="1" stop-color="#4682B4"/>
</linearGradient>
<linearGradient id="paint9_linear_2048_27" x1="139.864" y1="67.2633" x2="139.864" y2="54.3128" gradientUnits="userSpaceOnUse">
<stop stop-color="#4297C2"/>
<stop offset="1" stop-color="#4682B4"/>
</linearGradient>
<linearGradient id="paint10_linear_2048_27" x1="48.7871" y1="78.0028" x2="48.7871" y2="75.4759" gradientUnits="userSpaceOnUse">
<stop stop-color="#4297C2"/>
<stop offset="1" stop-color="#4682B4"/>
</linearGradient>
<linearGradient id="paint11_linear_2048_27" x1="52.997" y1="77.93" x2="52.997" y2="75.4944" gradientUnits="userSpaceOnUse">
<stop stop-color="#4297C2"/>
<stop offset="1" stop-color="#4682B4"/>
</linearGradient>
<linearGradient id="paint12_linear_2048_27" x1="58.8958" y1="78.0028" x2="58.8958" y2="75.5059" gradientUnits="userSpaceOnUse">
<stop stop-color="#4297C2"/>
<stop offset="1" stop-color="#4682B4"/>
</linearGradient>
<linearGradient id="paint13_linear_2048_27" x1="62.7367" y1="78.0078" x2="62.7367" y2="75.4758" gradientUnits="userSpaceOnUse">
<stop stop-color="#4297C2"/>
<stop offset="1" stop-color="#4682B4"/>
</linearGradient>
<linearGradient id="paint14_linear_2048_27" x1="65.9066" y1="78.0028" x2="65.9066" y2="75.4759" gradientUnits="userSpaceOnUse">
<stop stop-color="#4297C2"/>
<stop offset="1" stop-color="#4682B4"/>
</linearGradient>
<linearGradient id="paint15_linear_2048_27" x1="68.9882" y1="78.0028" x2="68.9882" y2="75.4759" gradientUnits="userSpaceOnUse">
<stop stop-color="#4297C2"/>
<stop offset="1" stop-color="#4682B4"/>
</linearGradient>
<linearGradient id="paint16_linear_2048_27" x1="74.9804" y1="78.0976" x2="74.9804" y2="75.5063" gradientUnits="userSpaceOnUse">
<stop stop-color="#4297C2"/>
<stop offset="1" stop-color="#4682B4"/>
</linearGradient>
<linearGradient id="paint17_linear_2048_27" x1="79.1213" y1="77.9348" x2="79.1213" y2="75.4758" gradientUnits="userSpaceOnUse">
<stop stop-color="#4297C2"/>
<stop offset="1" stop-color="#4682B4"/>
</linearGradient>
<linearGradient id="paint18_linear_2048_27" x1="85.2617" y1="77.9731" x2="85.2617" y2="75.4893" gradientUnits="userSpaceOnUse">
<stop stop-color="#4297C2"/>
<stop offset="1" stop-color="#4682B4"/>
</linearGradient>
<linearGradient id="paint19_linear_2048_27" x1="89.1922" y1="77.8963" x2="89.1922" y2="75.531" gradientUnits="userSpaceOnUse">
<stop stop-color="#4297C2"/>
<stop offset="1" stop-color="#4682B4"/>
</linearGradient>
<linearGradient id="paint20_linear_2048_27" x1="92.2709" y1="78.0028" x2="92.2709" y2="75.4759" gradientUnits="userSpaceOnUse">
<stop stop-color="#4297C2"/>
<stop offset="1" stop-color="#4682B4"/>
</linearGradient>
<linearGradient id="paint21_linear_2048_27" x1="95.353" y1="78.0028" x2="95.353" y2="75.4759" gradientUnits="userSpaceOnUse">
<stop stop-color="#4297C2"/>
<stop offset="1" stop-color="#4682B4"/>
</linearGradient>
</defs>
</svg>
